<mxfile host="app.diagrams.net" agent="Mozilla/5.0 (Windows NT 10.0; Win64; x64) AppleWebKit/537.36 (KHTML, like Gecko) Chrome/134.0.0.0 Safari/537.36" version="26.1.3">
  <diagram name="PÃ¡gina-1" id="oygAtPZqXrYl83XINA70">
    <mxGraphModel dx="1434" dy="772" grid="1" gridSize="10" guides="1" tooltips="1" connect="1" arrows="1" fold="1" page="1" pageScale="1" pageWidth="827" pageHeight="1169" math="0" shadow="0">
      <root>
        <mxCell id="0" />
        <mxCell id="1" parent="0" />
        <mxCell id="yyrck8AYA28l6mTrRHcT-1" value="MongoDB" style="shape=datastore;whiteSpace=wrap;html=1;fillColor=#e1d5e7;strokeColor=#7F00FF;" vertex="1" parent="1">
          <mxGeometry x="709" y="350" width="60" height="60" as="geometry" />
        </mxCell>
        <mxCell id="yyrck8AYA28l6mTrRHcT-6" style="edgeStyle=orthogonalEdgeStyle;rounded=0;orthogonalLoop=1;jettySize=auto;html=1;entryX=0.011;entryY=0.333;entryDx=0;entryDy=0;entryPerimeter=0;exitX=1;exitY=0.5;exitDx=0;exitDy=0;" edge="1" parent="1" source="yyrck8AYA28l6mTrRHcT-2" target="yyrck8AYA28l6mTrRHcT-9">
          <mxGeometry relative="1" as="geometry">
            <mxPoint x="309" y="325" as="targetPoint" />
            <Array as="points">
              <mxPoint x="310" y="300" />
              <mxPoint x="310" y="365" />
            </Array>
          </mxGeometry>
        </mxCell>
        <mxCell id="yyrck8AYA28l6mTrRHcT-2" value="App Mobile" style="rounded=0;whiteSpace=wrap;html=1;fillColor=#e1d5e7;strokeColor=#7F00FF;" vertex="1" parent="1">
          <mxGeometry x="90" y="270" width="120" height="60" as="geometry" />
        </mxCell>
        <mxCell id="yyrck8AYA28l6mTrRHcT-7" style="edgeStyle=orthogonalEdgeStyle;rounded=0;orthogonalLoop=1;jettySize=auto;html=1;exitX=1;exitY=0.5;exitDx=0;exitDy=0;entryX=0;entryY=0.75;entryDx=0;entryDy=0;" edge="1" parent="1" source="yyrck8AYA28l6mTrRHcT-3" target="yyrck8AYA28l6mTrRHcT-9">
          <mxGeometry relative="1" as="geometry">
            <mxPoint x="347" y="410" as="targetPoint" />
            <Array as="points">
              <mxPoint x="310" y="440" />
              <mxPoint x="310" y="403" />
            </Array>
          </mxGeometry>
        </mxCell>
        <mxCell id="yyrck8AYA28l6mTrRHcT-3" value="App Web" style="rounded=0;whiteSpace=wrap;html=1;fillColor=#e1d5e7;strokeColor=#7F00FF;" vertex="1" parent="1">
          <mxGeometry x="90" y="410" width="120" height="60" as="geometry" />
        </mxCell>
        <mxCell id="yyrck8AYA28l6mTrRHcT-8" style="edgeStyle=orthogonalEdgeStyle;rounded=0;orthogonalLoop=1;jettySize=auto;html=1;entryX=0;entryY=0.5;entryDx=0;entryDy=0;" edge="1" parent="1" target="yyrck8AYA28l6mTrRHcT-1">
          <mxGeometry relative="1" as="geometry">
            <mxPoint x="529" y="380" as="sourcePoint" />
          </mxGeometry>
        </mxCell>
        <mxCell id="yyrck8AYA28l6mTrRHcT-9" value="API" style="rounded=1;whiteSpace=wrap;html=1;fillColor=#e1d5e7;strokeColor=#7F00FF;" vertex="1" parent="1">
          <mxGeometry x="350" y="335" width="180" height="90" as="geometry" />
        </mxCell>
      </root>
    </mxGraphModel>
  </diagram>
</mxfile>
